<svg xmlns="http://www.w3.org/2000/svg" xmlns:xlink="http://www.w3.org/1999/xlink" contentStyleType="text/css" height="376px" preserveAspectRatio="none" style="width:317px;height:376px;background:#FFFFFF;" version="1.1" viewBox="0 0 317 376" width="317px" zoomAndPan="magnify"><defs/><g><!--cluster Gesti?n de Profesores y Asignaturas--><g id="cluster_Gesti&#243;n de Profesores y Asignaturas"><path d="M8.5,128.5 L297.833,128.5 A3.75,3.75 0 0 1 300.333,131 L307.333,150.7969 L307.5,150.7969 A2.5,2.5 0 0 1 310,153.2969 L310,230 A2.5,2.5 0 0 1 307.5,232.5 L8.5,232.5 A2.5,2.5 0 0 1 6,230 L6,131 A2.5,2.5 0 0 1 8.5,128.5 " fill="none" style="stroke:#000000;stroke-width:1.5;"/><line style="stroke:#000000;stroke-width:1.5;" x1="6" x2="307.333" y1="150.7969" y2="150.7969"/><text fill="#000000" font-family="sans-serif" font-size="14" font-weight="bold" lengthAdjust="spacing" textLength="288.333" x="10" y="143.4951">Gesti&#243;n de Profesores y Asignaturas</text></g><g id="elem_AsignarProfesor"><ellipse cx="158.0386" cy="190.0077" fill="#F1F1F1" rx="120.5386" ry="26.5077" style="stroke:#181818;stroke-width:0.5;"/><text fill="#000000" font-family="sans-serif" font-size="14" lengthAdjust="spacing" textLength="208.5029" x="53.7871" y="192.8544">Asignar Profesor a Asignatura</text></g><!--entity Admin--><g id="elem_Admin"><ellipse cx="158.04" cy="14" fill="#F1F1F1" rx="8" ry="8" style="stroke:#181818;stroke-width:0.5;"/><path d="M158.04,22 L158.04,49 M145.04,30 L171.04,30 M158.04,49 L145.04,64 M158.04,49 L171.04,64 " fill="none" style="stroke:#181818;stroke-width:0.5;"/><text fill="#000000" font-family="sans-serif" font-size="14" lengthAdjust="spacing" textLength="99.0801" x="108.5" y="78.4951">Administrador</text></g><!--entity Profesor--><g id="elem_Profesor"><ellipse cx="157.9604" cy="304" fill="#F1F1F1" rx="8" ry="8" style="stroke:#181818;stroke-width:0.5;"/><path d="M157.9604,312 L157.9604,339 M144.9604,320 L170.9604,320 M157.9604,339 L144.9604,354 M157.9604,339 L170.9604,354 " fill="none" style="stroke:#181818;stroke-width:0.5;"/><text fill="#000000" font-family="sans-serif" font-size="14" lengthAdjust="spacing" textLength="57.9209" x="129" y="368.4951">Profesor</text></g><!--link Admin to AsignarProfesor--><g id="link_Admin_AsignarProfesor"><path d="M158,81.71 C158,107.3 158,134.63 158,157.3 " fill="none" id="Admin-to-AsignarProfesor" style="stroke:#181818;stroke-width:1;"/><polygon fill="#181818" points="158,163.3,162,154.3,158,158.3,154,154.3,158,163.3" style="stroke:#181818;stroke-width:1;"/></g><!--link AsignarProfesor to Profesor--><g id="link_AsignarProfesor_Profesor"><path d="M158,216.62 C158,238.61 158,264.56 158,289.35 " fill="none" id="AsignarProfesor-to-Profesor" style="stroke:#181818;stroke-width:1;"/><polygon fill="#181818" points="158,295.35,162,286.35,158,290.35,154,286.35,158,295.35" style="stroke:#181818;stroke-width:1;"/><text fill="#000000" font-family="sans-serif" font-size="13" lengthAdjust="spacing" textLength="135.8335" x="159" y="261.5669">Profesor es asignado</text></g><!--SRC=[POwn3K8n34HxJt5A_nUWGFeLBIjOYVcA40coymk4c8eHM8meWO30bS_lJZxs9IlS74unHIlA8Qi36zg5kEEzveFOYxm5qPdzaHU1sucL-BWd11bO31VC5fV4PLKsXokXpchYsMgeCnq1y9UzT-YEyV16r6fXchP_y4Stpn2RprfxSRE6_0G0]--></g></svg>