<svg xmlns="http://www.w3.org/2000/svg" xmlns:xlink="http://www.w3.org/1999/xlink" contentStyleType="text/css" height="342px" preserveAspectRatio="none" style="width:408px;height:342px;background:#FFFFFF;" version="1.1" viewBox="0 0 408 342" width="408px" zoomAndPan="magnify"><defs/><g><!--cluster Gesti?n de Asignaturas--><g id="cluster_Gesti&#243;n de Asignaturas"><path d="M8.5,128.5 L193.9063,128.5 A3.75,3.75 0 0 1 196.4063,131 L203.4063,150.7969 L398.5,150.7969 A2.5,2.5 0 0 1 401,153.2969 L401,333 A2.5,2.5 0 0 1 398.5,335.5 L8.5,335.5 A2.5,2.5 0 0 1 6,333 L6,131 A2.5,2.5 0 0 1 8.5,128.5 " fill="none" style="stroke:#000000;stroke-width:1.5;"/><line style="stroke:#000000;stroke-width:1.5;" x1="6" x2="203.4063" y1="150.7969" y2="150.7969"/><text fill="#000000" font-family="sans-serif" font-size="14" font-weight="bold" lengthAdjust="spacing" textLength="184.4063" x="10" y="143.4951">Gesti&#243;n de Asignaturas</text></g><g id="elem_AsignarAsignatura"><ellipse cx="159.2082" cy="183.1416" fill="#F1F1F1" rx="86.2082" ry="19.6416" style="stroke:#181818;stroke-width:0.5;"/><text fill="#000000" font-family="sans-serif" font-size="14" lengthAdjust="spacing" textLength="133.1025" x="92.657" y="185.9883">Asignar Asignatura</text></g><g id="elem_SeleccionarDia"><ellipse cx="98.0733" cy="299.6147" fill="#F1F1F1" rx="76.0733" ry="17.6147" style="stroke:#181818;stroke-width:0.5;"/><text fill="#000000" font-family="sans-serif" font-size="14" lengthAdjust="spacing" textLength="108.7598" x="40.6934" y="303.3622">Seleccionar D&#237;a</text></g><g id="elem_SeleccionarHorario"><ellipse cx="296.9783" cy="299.4957" fill="#F1F1F1" rx="87.9783" ry="19.9957" style="stroke:#181818;stroke-width:0.5;"/><text fill="#000000" font-family="sans-serif" font-size="14" lengthAdjust="spacing" textLength="137.1494" x="228.4036" y="302.3423">Seleccionar Horario</text></g><!--entity Admin--><g id="elem_Admin"><ellipse cx="159.04" cy="14" fill="#F1F1F1" rx="8" ry="8" style="stroke:#181818;stroke-width:0.5;"/><path d="M159.04,22 L159.04,49 M146.04,30 L172.04,30 M159.04,49 L146.04,64 M159.04,49 L172.04,64 " fill="none" style="stroke:#181818;stroke-width:0.5;"/><text fill="#000000" font-family="sans-serif" font-size="14" lengthAdjust="spacing" textLength="99.0801" x="109.5" y="78.4951">Administrador</text></g><!--link Admin to AsignarAsignatura--><g id="link_Admin_AsignarAsignatura"><path d="M159,81.71 C159,108.11 159,136.44 159,157.32 " fill="none" id="Admin-to-AsignarAsignatura" style="stroke:#181818;stroke-width:1;"/><polygon fill="#181818" points="159,163.32,163,154.32,159,158.32,155,154.32,159,163.32" style="stroke:#181818;stroke-width:1;"/></g><!--link AsignarAsignatura to SeleccionarDia--><g id="link_AsignarAsignatura_SeleccionarDia"><path d="M149.2,202.4 C137.48,224.4 120.8608,255.5944 109.6108,276.7144 " fill="none" id="AsignarAsignatura-to-SeleccionarDia" style="stroke:#181818;stroke-width:1;"/><polygon fill="#181818" points="106.79,282.01,114.5516,275.9472,109.1407,277.597,107.4908,272.1861,106.79,282.01" style="stroke:#181818;stroke-width:1;"/><text fill="#000000" font-family="sans-serif" font-size="13" lengthAdjust="spacing" textLength="71.3921" x="133" y="245.5669">Elige el d&#237;a</text></g><!--link AsignarAsignatura to SeleccionarHorario--><g id="link_AsignarAsignatura_SeleccionarHorario"><path d="M180.56,201.89 C206.18,223.15 244.1032,254.6078 270.0532,276.1478 " fill="none" id="AsignarAsignatura-to-SeleccionarHorario" style="stroke:#181818;stroke-width:1;"/><polygon fill="#181818" points="274.67,279.98,270.2996,271.1539,270.8227,276.7865,265.1901,277.3096,274.67,279.98" style="stroke:#181818;stroke-width:1;"/><text fill="#000000" font-family="sans-serif" font-size="13" lengthAdjust="spacing" textLength="97.9761" x="237" y="245.5669">Elige el horario</text></g><!--SRC=[XP0z3i8m34RtdCBAtWim85KgWfqJM8bLB4g3x7H278c98_HYXAGIBI38-F8z_w6BGS3M_iGzQnJqGIoWGYR6dD4TiIMmMzB8uxq7Jr0hjpt6GL0jN0oaDoWvr9GhVpBBb785l-ZIsbD7pd5uciruAyuCDln3s0L1uV3kJDXSZSdBG5MjlypnGN9ksHjMiEaudO4wy6cy_zBKV2uU2de0]--></g></svg>