<svg xmlns="http://www.w3.org/2000/svg" xmlns:xlink="http://www.w3.org/1999/xlink" contentStyleType="text/css" height="197px" preserveAspectRatio="none" style="width:185px;height:197px;background:#FFFFFF;" version="1.1" viewBox="0 0 185 197" width="185px" zoomAndPan="magnify"><defs/><g><!--cluster Manejo de Sesi?n--><g id="cluster_Manejo de Sesi&#243;n"><path d="M8.5,106.5 L148.3174,106.5 A3.75,3.75 0 0 1 150.8174,109 L157.8174,128.7969 L175.5,128.7969 A2.5,2.5 0 0 1 178,131.2969 L178,188 A2.5,2.5 0 0 1 175.5,190.5 L8.5,190.5 A2.5,2.5 0 0 1 6,188 L6,109 A2.5,2.5 0 0 1 8.5,106.5 " fill="none" style="stroke:#000000;stroke-width:1.5;"/><line style="stroke:#000000;stroke-width:1.5;" x1="6" x2="157.8174" y1="128.7969" y2="128.7969"/><text fill="#000000" font-family="sans-serif" font-size="14" font-weight="bold" lengthAdjust="spacing" textLength="138.8174" x="10" y="121.4951">Manejo de Sesi&#243;n</text></g><g id="elem_IniciarSesion"><ellipse cx="92.2059" cy="157.9412" fill="#F1F1F1" rx="70.2059" ry="16.4412" style="stroke:#181818;stroke-width:0.5;"/><text fill="#000000" font-family="sans-serif" font-size="14" lengthAdjust="spacing" textLength="93.3857" x="42.513" y="161.6887">Iniciar Sesi&#243;n</text></g><!--entity Admin--><g id="elem_Admin"><ellipse cx="91.9321" cy="14" fill="#F1F1F1" rx="8" ry="8" style="stroke:#181818;stroke-width:0.5;"/><path d="M91.9321,22 L91.9321,49 M78.9321,30 L104.9321,30 M91.9321,49 L78.9321,64 M91.9321,49 L104.9321,64 " fill="none" style="stroke:#181818;stroke-width:0.5;"/><text fill="#000000" font-family="sans-serif" font-size="14" lengthAdjust="spacing" textLength="44.8643" x="69.5" y="78.4951">Admin</text></g><!--link Admin to IniciarSesion--><g id="link_Admin_IniciarSesion"><path d="M92,81.65 C92,101.87 92,119.84 92,135.22 " fill="none" id="Admin-to-IniciarSesion" style="stroke:#181818;stroke-width:1;"/><polygon fill="#181818" points="92,141.22,96,132.22,92,136.22,88,132.22,92,141.22" style="stroke:#181818;stroke-width:1;"/></g><!--SRC=[AqXCpavCJrLGyatCIytALqX9LGXEBSuyl3bFIQ6QIm48IejJanEBWIeyypAJCnEB4FA9nGfGCP1GVXvNBHUNOqfkPfw2hguTgXG0]--></g></svg>