<svg xmlns="http://www.w3.org/2000/svg" xmlns:xlink="http://www.w3.org/1999/xlink" contentStyleType="text/css" height="361px" preserveAspectRatio="none" style="width:321px;height:361px;background:#FFFFFF;" version="1.1" viewBox="0 0 321 361" width="321px" zoomAndPan="magnify"><defs/><g><!--cluster Gesti?n de Aulas--><g id="cluster_Gesti&#243;n de Aulas"><path d="M8.5,128.5 L142.541,128.5 A3.75,3.75 0 0 1 145.041,131 L152.041,150.7969 L285.5,150.7969 A2.5,2.5 0 0 1 288,153.2969 L288,352 A2.5,2.5 0 0 1 285.5,354.5 L8.5,354.5 A2.5,2.5 0 0 1 6,352 L6,131 A2.5,2.5 0 0 1 8.5,128.5 " fill="none" style="stroke:#000000;stroke-width:1.5;"/><line style="stroke:#000000;stroke-width:1.5;" x1="6" x2="152.041" y1="150.7969" y2="150.7969"/><text fill="#000000" font-family="sans-serif" font-size="14" font-weight="bold" lengthAdjust="spacing" textLength="133.041" x="10" y="143.4951">Gesti&#243;n de Aulas</text></g><g id="elem_AsignarAula"><ellipse cx="147.135" cy="190.927" fill="#F1F1F1" rx="125.135" ry="27.427" style="stroke:#181818;stroke-width:0.5;"/><text fill="#000000" font-family="sans-serif" font-size="14" lengthAdjust="spacing" textLength="218.2783" x="37.9958" y="193.7737">Asignar Aula Autom&#225;ticamente</text></g><g id="elem_ValidarDisponibilidad"><ellipse cx="116.8748" cy="316.875" fill="#F1F1F1" rx="94.8748" ry="21.375" style="stroke:#181818;stroke-width:0.5;"/><text fill="#000000" font-family="sans-serif" font-size="14" lengthAdjust="spacing" textLength="152.6943" x="40.5276" y="319.7216">Validar Disponibilidad</text></g><!--entity Admin--><g id="elem_Admin"><ellipse cx="147.04" cy="14" fill="#F1F1F1" rx="8" ry="8" style="stroke:#181818;stroke-width:0.5;"/><path d="M147.04,22 L147.04,49 M134.04,30 L160.04,30 M147.04,49 L134.04,64 M147.04,49 L160.04,64 " fill="none" style="stroke:#181818;stroke-width:0.5;"/><text fill="#000000" font-family="sans-serif" font-size="14" lengthAdjust="spacing" textLength="99.0801" x="97.5" y="78.4951">Administrador</text></g><!--link Admin to AsignarAula--><g id="link_Admin_AsignarAula"><path d="M147,81.59 C147,107.02 147,134.17 147,157.08 " fill="none" id="Admin-to-AsignarAula" style="stroke:#181818;stroke-width:1;"/><polygon fill="#181818" points="147,163.08,151,154.08,147,158.08,143,154.08,147,163.08" style="stroke:#181818;stroke-width:1;"/></g><!--link AsignarAula to ValidarDisponibilidad--><g id="link_AsignarAula_ValidarDisponibilidad"><path d="M140.56,218.6 C135.02,241.52 128.5402,268.2981 123.4502,289.3481 " fill="none" id="AsignarAula-to-ValidarDisponibilidad" style="stroke:#181818;stroke-width:1;"/><polygon fill="#181818" points="122.04,295.18,128.0432,287.3722,123.2152,290.3201,120.2673,285.492,122.04,295.18" style="stroke:#181818;stroke-width:1;"/><text fill="#000000" font-family="sans-serif" font-size="13" lengthAdjust="spacing" textLength="179.2642" x="134" y="261.5669">Chequear aulas disponibles</text></g><!--SRC=[ROyz3i8m38NtdCBAtWim85KWSGDsarZ5earAd4oeX-4C7A4N8qax48aCLkplFV-WYJw0xkt4ZYK6j3veG85QKMf6yy21G5z88gyV1vQWJoEAXfU2_9AGGScANdXm62hD8VffVKSsE96BjFNS54NGMgyuiitMCyli7T-ufBPwTjGIjIXL5uIkEpPjV_wL_RN30KvtUYRA8x7S0dRd8yaN]--></g></svg>