<svg xmlns="http://www.w3.org/2000/svg" xmlns:xlink="http://www.w3.org/1999/xlink" contentStyleType="text/css" height="355px" preserveAspectRatio="none" style="width:443px;height:355px;background:#FFFFFF;" version="1.1" viewBox="0 0 443 355" width="443px" zoomAndPan="magnify"><defs/><g><!--cluster Gesti?n de Asignaturas--><g id="cluster_Gesti&#243;n de Asignaturas"><path d="M8.5,128.5 L193.9063,128.5 A3.75,3.75 0 0 1 196.4063,131 L203.4063,150.7969 L433.5,150.7969 A2.5,2.5 0 0 1 436,153.2969 L436,346 A2.5,2.5 0 0 1 433.5,348.5 L8.5,348.5 A2.5,2.5 0 0 1 6,346 L6,131 A2.5,2.5 0 0 1 8.5,128.5 " fill="none" style="stroke:#000000;stroke-width:1.5;"/><line style="stroke:#000000;stroke-width:1.5;" x1="6" x2="203.4063" y1="150.7969" y2="150.7969"/><text fill="#000000" font-family="sans-serif" font-size="14" font-weight="bold" lengthAdjust="spacing" textLength="184.4063" x="10" y="143.4951">Gesti&#243;n de Asignaturas</text></g><g id="elem_EditarAsignacion"><ellipse cx="196.939" cy="191.4878" fill="#F1F1F1" rx="127.939" ry="27.9878" style="stroke:#181818;stroke-width:0.5;"/><text fill="#000000" font-family="sans-serif" font-size="14" lengthAdjust="spacing" textLength="224.2188" x="84.8296" y="194.3345">Editar Asignaci&#243;n de Asignatura</text></g><g id="elem_CambiarDia"><ellipse cx="89.81" cy="314.462" fill="#F1F1F1" rx="67.81" ry="15.962" style="stroke:#181818;stroke-width:0.5;"/><text fill="#000000" font-family="sans-serif" font-size="14" lengthAdjust="spacing" textLength="86.8027" x="43.4087" y="318.2096">Cambiar D&#237;a</text></g><g id="elem_CambiarHorario"><ellipse cx="272.137" cy="314.6274" fill="#F1F1F1" rx="78.637" ry="18.1274" style="stroke:#181818;stroke-width:0.5;"/><text fill="#000000" font-family="sans-serif" font-size="14" lengthAdjust="spacing" textLength="115.1924" x="212.3457" y="318.1594">Cambiar Horario</text></g><!--entity Admin--><g id="elem_Admin"><ellipse cx="197.04" cy="14" fill="#F1F1F1" rx="8" ry="8" style="stroke:#181818;stroke-width:0.5;"/><path d="M197.04,22 L197.04,49 M184.04,30 L210.04,30 M197.04,49 L184.04,64 M197.04,49 L210.04,64 " fill="none" style="stroke:#181818;stroke-width:0.5;"/><text fill="#000000" font-family="sans-serif" font-size="14" lengthAdjust="spacing" textLength="99.0801" x="147.5" y="78.4951">Administrador</text></g><!--link Admin to EditarAsignacion--><g id="link_Admin_EditarAsignacion"><path d="M197,81.72 C197,107.23 197,134.5 197,157.49 " fill="none" id="Admin-to-EditarAsignacion" style="stroke:#181818;stroke-width:1;"/><polygon fill="#181818" points="197,163.49,201,154.49,197,158.49,193,154.49,197,163.49" style="stroke:#181818;stroke-width:1;"/></g><!--link EditarAsignacion to CambiarDia--><g id="link_EditarAsignacion_CambiarDia"><path d="M120.06,213.98 C103.43,222.33 87.89,233.8 78,249.5 C68.66,264.33 72.4707,279.2332 78.9507,292.9732 " fill="none" id="EditarAsignacion-to-CambiarDia" style="stroke:#181818;stroke-width:1;"/><polygon fill="#181818" points="81.51,298.4,81.2888,288.5536,79.3772,293.8777,74.0531,291.9661,81.51,298.4" style="stroke:#181818;stroke-width:1;"/><text fill="#000000" font-family="sans-serif" font-size="13" lengthAdjust="spacing" textLength="146.7896" x="79" y="262.5669">Modificar d&#237;a asignado</text></g><!--link EditarAsignacion to CambiarHorario--><g id="link_EditarAsignacion_CambiarHorario"><path d="M213.64,219.35 C228.23,242.89 245.8274,271.2812 258.2574,291.3212 " fill="none" id="EditarAsignacion-to-CambiarHorario" style="stroke:#181818;stroke-width:1;"/><polygon fill="#181818" points="261.42,296.42,260.0753,286.6634,258.7845,292.171,253.2769,290.8802,261.42,296.42" style="stroke:#181818;stroke-width:1;"/><text fill="#000000" font-family="sans-serif" font-size="13" lengthAdjust="spacing" textLength="173.3735" x="242" y="262.5669">Modificar horario asignado</text></g><!--SRC=[VO-n3S8m44LxJt5odmKea111q334uJFXXE93jbCXHg9YX2o6SHn12CBbr_l_-T14yQ1NrBBZ43sIU0qO82TANT2SiR6WjpP4xXyEoC8gSECmTXw3Xgk2zBfW3OR4ROWZ-eAOUIEF3z38Y9jEhB4zSDge-_k0bw1c_0tknADd-MHBf6vAvKkWgfPpxNUGgRSD5h0NuYER9A7qcoHueIH_cyKzQPzADWuy0G00]--></g></svg>