<svg xmlns="http://www.w3.org/2000/svg" xmlns:xlink="http://www.w3.org/1999/xlink" contentStyleType="text/css" height="205px" preserveAspectRatio="none" style="width:225px;height:205px;background:#FFFFFF;" version="1.1" viewBox="0 0 225 205" width="225px" zoomAndPan="magnify"><defs/><g><!--cluster Gesti?n de Asignaturas--><g id="cluster_Gesti&#243;n de Asignaturas"><path d="M8.5,106.5 L193.9063,106.5 A3.75,3.75 0 0 1 196.4063,109 L203.4063,128.7969 L215.5,128.7969 A2.5,2.5 0 0 1 218,131.2969 L218,196 A2.5,2.5 0 0 1 215.5,198.5 L8.5,198.5 A2.5,2.5 0 0 1 6,196 L6,109 A2.5,2.5 0 0 1 8.5,106.5 " fill="none" style="stroke:#000000;stroke-width:1.5;"/><line style="stroke:#000000;stroke-width:1.5;" x1="6" x2="203.4063" y1="128.7969" y2="128.7969"/><text fill="#000000" font-family="sans-serif" font-size="14" font-weight="bold" lengthAdjust="spacing" textLength="184.4063" x="10" y="121.4951">Gesti&#243;n de Asignaturas</text></g><g id="elem_MostrarAsignaturas"><ellipse cx="112.1991" cy="161.8398" fill="#F1F1F1" rx="89.6991" ry="20.3398" style="stroke:#181818;stroke-width:0.5;"/><text fill="#000000" font-family="sans-serif" font-size="14" lengthAdjust="spacing" textLength="141.0596" x="41.6693" y="164.6865">Mostrar Asignaturas</text></g><!--entity Admin--><g id="elem_Admin"><ellipse cx="112.04" cy="14" fill="#F1F1F1" rx="8" ry="8" style="stroke:#181818;stroke-width:0.5;"/><path d="M112.04,22 L112.04,49 M99.04,30 L125.04,30 M112.04,49 L99.04,64 M112.04,49 L125.04,64 " fill="none" style="stroke:#181818;stroke-width:0.5;"/><text fill="#000000" font-family="sans-serif" font-size="14" lengthAdjust="spacing" textLength="99.0801" x="62.5" y="78.4951">Administrador</text></g><!--link Admin to MostrarAsignaturas--><g id="link_Admin_MostrarAsignaturas"><path d="M112,81.68 C112,101.53 112,119.14 112,135.41 " fill="none" id="Admin-to-MostrarAsignaturas" style="stroke:#181818;stroke-width:1;"/><polygon fill="#181818" points="112,141.41,116,132.41,112,136.41,108,132.41,112,141.41" style="stroke:#181818;stroke-width:1;"/></g><!--SRC=[IqmkoIzIK79CoStCoomkAKfCoIzIKaWiLW2BS74L92Pd9wQdAYYvfnQNP1xUdAUGaghWM9oPdfTOKbgKMAoaKCsb00IbnQd9YSL0TRxv85EAKDK0pOEA8mbprN9nWMrHqDMrmo8F0000]--></g></svg>