<svg xmlns="http://www.w3.org/2000/svg" xmlns:xlink="http://www.w3.org/1999/xlink" contentStyleType="text/css" height="220px" preserveAspectRatio="none" style="width:3567px;height:220px;background:#FFFFFF;" version="1.1" viewBox="0 0 3567 220" width="3567px" zoomAndPan="magnify"><defs/><g><!--cluster MEN? PRINCIPAL--><g id="cluster_MEN&#218; PRINCIPAL"><path d="M8.5,106.5 L144.4209,106.5 A3.75,3.75 0 0 1 146.9209,109 L153.9209,128.7969 L3557.5,128.7969 A2.5,2.5 0 0 1 3560,131.2969 L3560,211 A2.5,2.5 0 0 1 3557.5,213.5 L8.5,213.5 A2.5,2.5 0 0 1 6,211 L6,109 A2.5,2.5 0 0 1 8.5,106.5 " fill="none" style="stroke:#000000;stroke-width:1.5;"/><line style="stroke:#000000;stroke-width:1.5;" x1="6" x2="153.9209" y1="128.7969" y2="128.7969"/><text fill="#000000" font-family="sans-serif" font-size="14" font-weight="bold" lengthAdjust="spacing" textLength="134.9209" x="10" y="121.4951">MEN&#218; PRINCIPAL</text></g><g id="elem_Crear Horario"><ellipse cx="3187.1443" cy="169.5289" fill="#F1F1F1" rx="70.6443" ry="16.5289" style="stroke:#181818;stroke-width:0.5;"/><text fill="#000000" font-family="sans-serif" font-size="14" lengthAdjust="spacing" textLength="94.5684" x="3136.8601" y="173.2764">Crear Horario</text></g><g id="elem_Buscar Grado"><ellipse cx="2758.7638" cy="169.5528" fill="#F1F1F1" rx="70.7638" ry="16.5528" style="stroke:#181818;stroke-width:0.5;"/><text fill="#000000" font-family="sans-serif" font-size="14" lengthAdjust="spacing" textLength="94.8896" x="2708.319" y="173.3003">Buscar Grado</text></g><g id="elem_Mostrar Asignaturas"><ellipse cx="2327.1991" cy="169.3398" fill="#F1F1F1" rx="89.6991" ry="20.3398" style="stroke:#181818;stroke-width:0.5;"/><text fill="#000000" font-family="sans-serif" font-size="14" lengthAdjust="spacing" textLength="141.0596" x="2256.6693" y="172.1865">Mostrar Asignaturas</text></g><g id="elem_Ver Disponibilidad de Aulas"><ellipse cx="1867.8808" cy="169.4762" fill="#F1F1F1" rx="112.8808" ry="24.9762" style="stroke:#181818;stroke-width:0.5;"/><text fill="#000000" font-family="sans-serif" font-size="14" lengthAdjust="spacing" textLength="192.0967" x="1771.8325" y="172.3228">Ver Disponibilidad de Aulas</text></g><g id="elem_Asignar Profesor a Asignatura"><ellipse cx="1315.0386" cy="169.5077" fill="#F1F1F1" rx="120.5386" ry="26.5077" style="stroke:#181818;stroke-width:0.5;"/><text fill="#000000" font-family="sans-serif" font-size="14" lengthAdjust="spacing" textLength="208.5029" x="1210.7871" y="172.3544">Asignar Profesor a Asignatura</text></g><g id="elem_Editar Asignaci&#243;n de Asignatura"><ellipse cx="754.939" cy="169.4878" fill="#F1F1F1" rx="127.939" ry="27.9878" style="stroke:#181818;stroke-width:0.5;"/><text fill="#000000" font-family="sans-serif" font-size="14" lengthAdjust="spacing" textLength="224.2188" x="642.8296" y="172.3345">Editar Asignaci&#243;n de Asignatura</text></g><g id="elem_Confirmar Horario"><ellipse cx="282.0737" cy="169.5147" fill="#F1F1F1" rx="83.0737" ry="19.0147" style="stroke:#181818;stroke-width:0.5;"/><text fill="#000000" font-family="sans-serif" font-size="14" lengthAdjust="spacing" textLength="125.8496" x="218.5808" y="172.5537">Confirmar Horario</text></g><g id="elem_Cerrar Sesi&#243;n"><ellipse cx="93.2333" cy="169.5467" fill="#F1F1F1" rx="70.7333" ry="16.5467" style="stroke:#181818;stroke-width:0.5;"/><text fill="#000000" font-family="sans-serif" font-size="14" lengthAdjust="spacing" textLength="94.8076" x="42.8295" y="173.2942">Cerrar Sesi&#243;n</text></g><g id="elem_GMN20"><path d="M3292.5,157 L3292.5,165.5 L3257.83,169.5 L3292.5,173.5 L3292.5,182.1328 A0,0 0 0 0 3292.5,182.1328 L3543.9453,182.1328 A0,0 0 0 0 3543.9453,182.1328 L3543.9453,167 L3533.9453,157 L3292.5,157 A0,0 0 0 0 3292.5,157 " fill="#FEFFDD" style="stroke:#181818;stroke-width:0.5;"/><path d="M3533.9453,157 L3533.9453,167 L3543.9453,167 L3533.9453,157 " fill="#FEFFDD" style="stroke:#181818;stroke-width:0.5;"/><text fill="#000000" font-family="sans-serif" font-size="13" lengthAdjust="spacing" textLength="230.4453" x="3298.5" y="174.0669">Configurar horarios y asignar horas</text></g><g id="elem_GMN23"><path d="M2865,157 L2865,165.5 L2830.05,169.5 L2865,173.5 L2865,182.1328 A0,0 0 0 0 2865,182.1328 L3080.8857,182.1328 A0,0 0 0 0 3080.8857,182.1328 L3080.8857,167 L3070.8857,157 L2865,157 A0,0 0 0 0 2865,157 " fill="#FEFFDD" style="stroke:#181818;stroke-width:0.5;"/><path d="M3070.8857,157 L3070.8857,167 L3080.8857,167 L3070.8857,157 " fill="#FEFFDD" style="stroke:#181818;stroke-width:0.5;"/><text fill="#000000" font-family="sans-serif" font-size="13" lengthAdjust="spacing" textLength="194.8857" x="2871" y="174.0669">Buscar informaci&#243;n de grados</text></g><g id="elem_GMN26"><path d="M2451.5,157 L2451.5,165.5 L2416.65,169.5 L2451.5,173.5 L2451.5,182.1328 A0,0 0 0 0 2451.5,182.1328 L2652.6084,182.1328 A0,0 0 0 0 2652.6084,182.1328 L2652.6084,167 L2642.6084,157 L2451.5,157 A0,0 0 0 0 2451.5,157 " fill="#FEFFDD" style="stroke:#181818;stroke-width:0.5;"/><path d="M2642.6084,157 L2642.6084,167 L2652.6084,167 L2642.6084,157 " fill="#FEFFDD" style="stroke:#181818;stroke-width:0.5;"/><text fill="#000000" font-family="sans-serif" font-size="13" lengthAdjust="spacing" textLength="180.1084" x="2457.5" y="174.0669">Ver asignaturas registradas</text></g><g id="elem_GMN29"><path d="M2016,157 L2016,165.5 L1981.44,169.5 L2016,173.5 L2016,182.1328 A0,0 0 0 0 2016,182.1328 L2201.5693,182.1328 A0,0 0 0 0 2201.5693,182.1328 L2201.5693,167 L2191.5693,157 L2016,157 A0,0 0 0 0 2016,157 " fill="#FEFFDD" style="stroke:#181818;stroke-width:0.5;"/><path d="M2191.5693,157 L2191.5693,167 L2201.5693,167 L2191.5693,157 " fill="#FEFFDD" style="stroke:#181818;stroke-width:0.5;"/><text fill="#000000" font-family="sans-serif" font-size="13" lengthAdjust="spacing" textLength="164.5693" x="2022" y="174.0669">Revisar aulas disponibles</text></g><g id="elem_GMN32"><path d="M1470.5,157 L1470.5,165.5 L1435.59,169.5 L1470.5,173.5 L1470.5,182.1328 A0,0 0 0 0 1470.5,182.1328 L1719.7617,182.1328 A0,0 0 0 0 1719.7617,182.1328 L1719.7617,167 L1709.7617,157 L1470.5,157 A0,0 0 0 0 1470.5,157 " fill="#FEFFDD" style="stroke:#181818;stroke-width:0.5;"/><path d="M1709.7617,157 L1709.7617,167 L1719.7617,167 L1709.7617,157 " fill="#FEFFDD" style="stroke:#181818;stroke-width:0.5;"/><text fill="#000000" font-family="sans-serif" font-size="13" lengthAdjust="spacing" textLength="228.2617" x="1476.5" y="174.0669">Relacionar profesor con asignatura</text></g><g id="elem_GMN35"><path d="M918.5,157 L918.5,165.5 L883.13,169.5 L918.5,173.5 L918.5,182.1328 A0,0 0 0 0 918.5,182.1328 L1159.2559,182.1328 A0,0 0 0 0 1159.2559,182.1328 L1159.2559,167 L1149.2559,157 L918.5,157 A0,0 0 0 0 918.5,157 " fill="#FEFFDD" style="stroke:#181818;stroke-width:0.5;"/><path d="M1149.2559,157 L1149.2559,167 L1159.2559,167 L1149.2559,157 " fill="#FEFFDD" style="stroke:#181818;stroke-width:0.5;"/><text fill="#000000" font-family="sans-serif" font-size="13" lengthAdjust="spacing" textLength="219.7559" x="924.5" y="174.0669">Modificar asignaciones existentes</text></g><g id="elem_GMN38"><path d="M400,157 L400,165.5 L365.18,169.5 L400,173.5 L400,182.1328 A0,0 0 0 0 400,182.1328 L592.4438,182.1328 A0,0 0 0 0 592.4438,182.1328 L592.4438,167 L582.4438,157 L400,157 A0,0 0 0 0 400,157 " fill="#FEFFDD" style="stroke:#181818;stroke-width:0.5;"/><path d="M582.4438,157 L582.4438,167 L592.4438,167 L582.4438,157 " fill="#FEFFDD" style="stroke:#181818;stroke-width:0.5;"/><text fill="#000000" font-family="sans-serif" font-size="13" lengthAdjust="spacing" textLength="171.4438" x="406" y="174.0669">Guardar y finalizar horario</text></g><!--entity Admin--><g id="elem_Admin"><ellipse cx="1591.04" cy="14" fill="#F1F1F1" rx="8" ry="8" style="stroke:#181818;stroke-width:0.5;"/><path d="M1591.04,22 L1591.04,49 M1578.04,30 L1604.04,30 M1591.04,49 L1578.04,64 M1591.04,49 L1604.04,64 " fill="none" style="stroke:#181818;stroke-width:0.5;"/><text fill="#000000" font-family="sans-serif" font-size="14" lengthAdjust="spacing" textLength="99.0801" x="1541.5" y="78.4951">Administrador</text></g><!--link Admin to Crear Horario--><g id="link_Admin_Crear Horario"><path d="M1640.51,44.44 C1885.27,44.38 2959.77,47.07 3099,98.5 C3129.58,109.8 3153.6105,131.7589 3169.4805,148.7189 " fill="none" id="Admin-to-Crear Horario" style="stroke:#181818;stroke-width:1;"/><polygon fill="#181818" points="3173.58,153.1,3170.3514,143.7954,3170.1637,149.4491,3164.51,149.2614,3173.58,153.1" style="stroke:#181818;stroke-width:1;"/></g><!--link Admin to Buscar Grado--><g id="link_Admin_Buscar Grado"><path d="M1640.55,45.21 C1839.33,48.32 2572.95,62.17 2670,98.5 C2700.74,110.01 2725.1075,131.9495 2741.2175,148.8295 " fill="none" id="Admin-to-Buscar Grado" style="stroke:#181818;stroke-width:1;"/><polygon fill="#181818" points="2745.36,153.17,2742.0399,143.8976,2741.9079,149.5529,2736.2526,149.4209,2745.36,153.17" style="stroke:#181818;stroke-width:1;"/></g><!--link Admin to Mostrar Asignaturas--><g id="link_Admin_Mostrar Asignaturas"><path d="M1640.93,45.65 C1770.19,49.11 2113.16,61.61 2220,98.5 C2252.31,109.66 2279.8082,128.9428 2300.3082,145.5528 " fill="none" id="Admin-to-Mostrar Asignaturas" style="stroke:#181818;stroke-width:1;"/><polygon fill="#181818" points="2304.97,149.33,2300.4954,140.5563,2301.0851,146.1823,2295.4591,146.7721,2304.97,149.33" style="stroke:#181818;stroke-width:1;"/></g><!--link Admin to Ver Disponibilidad de Aulas--><g id="link_Admin_Ver Disponibilidad de Aulas"><path d="M1640.67,60.98 C1669.23,70.92 1705.57,84.37 1737,98.5 C1768.75,112.77 1798.2121,128.5156 1823.9221,142.9956 " fill="none" id="Admin-to-Ver Disponibilidad de Aulas" style="stroke:#181818;stroke-width:1;"/><polygon fill="#181818" points="1829.15,145.94,1823.2711,138.0382,1824.7934,143.4864,1819.3453,145.0087,1829.15,145.94" style="stroke:#181818;stroke-width:1;"/></g><!--link Admin to Asignar Profesor a Asignatura--><g id="link_Admin_Asignar Profesor a Asignatura"><path d="M1541.34,62.6 C1514.86,72.59 1481.88,85.56 1453,98.5 C1421.13,112.78 1391.3516,127.8195 1364.5316,141.9095 " fill="none" id="Admin-to-Asignar Profesor a Asignatura" style="stroke:#181818;stroke-width:1;"/><polygon fill="#181818" points="1359.22,144.7,1369.0477,144.0554,1363.6463,142.3746,1365.3271,136.9732,1359.22,144.7" style="stroke:#181818;stroke-width:1;"/></g><!--link Admin to Editar Asignaci?n de Asignatura--><g id="link_Admin_Editar Asignaci&#243;n de Asignatura"><path d="M1541.04,46.03 C1403.59,50.61 1021.97,65.98 901,98.5 C864.35,108.35 831.0075,124.3707 802.7075,140.0607 " fill="none" id="Admin-to-Editar Asignaci&#243;n de Asignatura" style="stroke:#181818;stroke-width:1;"/><polygon fill="#181818" points="797.46,142.97,807.2707,142.1044,801.8329,140.5456,803.3917,135.1077,797.46,142.97" style="stroke:#181818;stroke-width:1;"/></g><!--link Admin to Confirmar Horario--><g id="link_Admin_Confirmar Horario"><path d="M1541.48,45.1 C1328.23,47.88 493.9,61.09 383,98.5 C350.66,109.41 323.7687,130.0374 304.7887,146.9574 " fill="none" id="Admin-to-Confirmar Horario" style="stroke:#181818;stroke-width:1;"/><polygon fill="#181818" points="300.31,150.95,309.6898,147.9469,304.0423,147.6228,304.3663,141.9752,300.31,150.95" style="stroke:#181818;stroke-width:1;"/></g><!--link Admin to Cerrar Sesi?n--><g id="link_Admin_Cerrar Sesi&#243;n"><path d="M1541.28,44.59 C1306.13,45.25 311.52,50.87 182,98.5 C151.19,109.83 126.8307,131.8183 110.7507,148.7583 " fill="none" id="Admin-to-Cerrar Sesi&#243;n" style="stroke:#181818;stroke-width:1;"/><polygon fill="#181818" points="106.62,153.11,115.7172,149.3363,110.0623,149.4836,109.915,143.8287,106.62,153.11" style="stroke:#181818;stroke-width:1;"/></g><!--SRC=[XPB1JiCm38RlVGgh9tRO2t10AcKQazWq3OcxQTBEeeid9qKCn8lm6Zp2Neoa7TjOiv5Rx3-V_Tl1mh50cgaL6R9EKB6aW1RQI9AiiNZ1IaCw7SssNp1VJ6RvP9uzfF2HW3-j38R36xZAHQF0FGiAyU0qUzlOmgV7eK8lEULGMY2pL1bqZQ3jQPwqm1tPDHjwffeKAb0QigQEQ3kEm5ourDORn2DqJprIvFR52zf-cvPy_a7EfYHPNN2RQmb-7hKDk47IvWqx3KBLqW6Nf_E2QsYnLHCUBhkeXOtVHUSbX6oCysUo7hExaodPzxZtKuLy512RlkU4WUCX1AAhxeV4sxYq7qzRw5UolWY60AYTiDPHrkNzjRJQE-EWMVzg2ZP7_SQm_oxQawUigAGmGDp9s6WB-irxryR5- -r_24yQDoZAXpPGai6QtWzxJJv_0000]--></g></svg>